PathFileType	4	(X/Y/Z)	SUBJ82_0_static_RCNL2025.trc
DataRate	CameraRate	NumFrames	NumMarkers	Units	OrigDataRate	OrigDataStartFrame	OrigNumFrames
100	100	10	25	mm	100	69	82
Frame#	Time	R_Shoulder			L_Shoulder			C7			J_Notch			R_Elbow			L_Elbow			R_Wrist			L_Wrist			R_Asis			L_Asis			Sacral			Thoracic			Sternum			R_Thigh_Lateral			R_Knee_Lateral			R_Shank_Lateral			R_Ankle_Lateral			R_Heel			R_Toe			L_Thigh_Lateral			L_Knee_Lateral			L_Shank_Lateral			L_Ankle_Lateral			L_Heel			L_Toe		
		X1	Y1	Z1	X2	Y2	Z2	X3	Y3	Z3	X4	Y4	Z4	X5	Y5	Z5	X6	Y6	Z6	X7	Y7	Z7	X8	Y8	Z8	X9	Y9	Z9	X10	Y10	Z10	X11	Y11	Z11	X12	Y12	Z12	X13	Y13	Z13	X14	Y14	Z14	X15	Y15	Z15	X16	Y16	Z16	X17	Y17	Z17	X18	Y18	Z18	X19	Y19	Z19	X20	Y20	Z20	X21	Y21	Z21	X22	Y22	Z22	X23	Y23	Z23	X24	Y24	Z24	X25	Y25	Z25
69	0.68000000	-275.061798	1455.026245	-3.517974	-250.255234	1471.895630	-393.374908	-317.211639	1526.923828	-195.634933	-184.978317	1421.736328	-194.819565	-303.321930	1187.927246	188.783203	-268.576019	1202.547119	-596.619202	-229.094917	972.125214	315.252701	-204.565643	982.127838	-713.757904	-184.331131	999.716248	-57.545937	-174.882477	1006.296997	-327.681458	-359.920746	1029.527954	-208.360519	-389.908661	1290.789551	-212.934616	-153.974350	1241.760376	-197.976395	-285.973999	574.509277	-21.671755	-298.707367	488.783539	-71.745773	-336.605896	265.737335	-11.287177	-340.685089	79.818565	-105.645767	-383.041718	46.729988	-148.278305	-203.977417	51.267391	-124.793083	-310.282990	572.887573	-373.120026	-317.526184	496.903992	-328.751984	-328.936920	265.526672	-366.031921	-334.932770	74.212555	-298.521423	-374.507355	52.456120	-246.446426	-191.879196	46.144253	-269.179108
70	0.69000000	-275.004181	1455.089966	-3.569532	-250.197845	1471.906982	-393.346527	-317.054291	1526.869995	-195.642426	-185.007980	1421.762207	-194.840576	-303.268646	1187.995117	188.848083	-268.469452	1202.546875	-596.618713	-229.057945	972.164124	315.363129	-204.501053	982.112213	-713.712555	-184.391251	999.665649	-57.490963	-174.830963	1006.259949	-327.768738	-359.916992	1029.527344	-208.364548	-389.835541	1290.780273	-212.976227	-153.886108	1241.747314	-197.946320	-285.929413	574.488953	-21.679699	-298.701721	488.801544	-71.723335	-336.639465	265.718750	-11.282805	-340.686768	79.826073	-105.635086	-383.056061	46.741264	-148.255386	-204.015274	51.301743	-124.762085	-310.285553	572.837158	-373.121460	-317.512085	496.968475	-328.754761	-328.918213	265.530792	-366.071320	-334.928009	74.214287	-298.533081	-374.535400	52.421307	-246.414246	-191.872665	46.122250	-269.203766
71	0.70000000	-274.935425	1455.073364	-3.640602	-250.093628	1471.903442	-393.378937	-317.040527	1526.864258	-195.646408	-184.945984	1421.805298	-194.894043	-303.338318	1188.000610	188.905136	-268.464172	1202.549805	-596.619385	-229.131729	972.248779	315.454407	-204.529572	982.144318	-713.745514	-184.467392	999.679138	-57.520050	-174.902786	1006.234253	-327.855865	-359.994232	1029.511719	-208.421448	-389.818024	1290.852295	-213.001770	-153.766907	1241.761841	-198.029083	-285.974731	574.533020	-21.674927	-298.656067	488.739197	-71.759956	-336.584106	265.892242	-11.315469	-340.744049	79.770294	-105.617294	-383.084381	46.677216	-148.217392	-204.014954	51.303806	-124.769058	-310.284088	572.788208	-373.140503	-317.541168	496.979706	-328.790680	-328.950684	265.481110	-366.043579	-334.946289	74.210602	-298.474152	-374.508514	52.453259	-246.444778	-191.888794	46.149605	-269.147491
72	0.71000000	-274.873505	1455.089844	-3.527920	-250.066650	1471.867188	-393.414886	-316.956360	1526.859619	-195.712326	-184.767822	1421.803833	-194.850983	-303.404572	1188.057251	188.944824	-268.382507	1202.593994	-596.691833	-229.255569	972.321564	315.556717	-204.496033	982.158752	-713.806122	-184.507477	999.671631	-57.546265	-174.982666	1006.210876	-327.825989	-360.012756	1029.446533	-208.399353	-389.802826	1290.846924	-213.026627	-153.855881	1241.782349	-198.083969	-285.993805	574.549805	-21.698307	-298.764526	488.785767	-71.809563	-336.488708	265.897369	-11.353829	-340.741394	79.755905	-105.620193	-383.083954	46.670792	-148.215057	-203.999710	51.301338	-124.792198	-310.537262	572.968567	-372.894440	-317.572266	496.944397	-328.760529	-329.004333	265.514160	-365.996979	-335.018707	74.201759	-298.487823	-374.505066	52.455727	-246.448929	-191.863388	46.144852	-269.177734
73	0.72000000	-274.814819	1455.090454	-3.568167	-249.993240	1471.836182	-393.403107	-316.897247	1526.836914	-195.738617	-184.725311	1421.805542	-194.871994	-303.345001	1188.095337	188.888657	-268.305664	1202.603516	-596.755005	-229.186790	972.391235	315.556793	-204.469200	982.103485	-713.824829	-184.441299	999.620117	-57.621101	-174.986313	1006.209167	-327.819000	-360.003571	1029.555786	-208.409302	-389.745544	1290.886597	-213.056915	-153.895370	1241.753174	-198.138901	-285.984344	574.554260	-21.724325	-298.833130	488.723663	-71.772888	-336.581085	265.930847	-11.418900	-340.736877	79.755653	-105.621880	-383.083008	46.672680	-148.216782	-204.000168	51.290871	-124.778336	-310.358398	572.844238	-373.122009	-317.633270	496.929382	-328.800690	-328.987427	265.480652	-366.126068	-334.987854	74.224518	-298.521973	-374.544006	52.484341	-246.433868	-191.854065	46.141094	-269.165314
74	0.73000000	-274.772644	1455.125854	-3.612574	-249.908615	1471.848755	-393.409760	-316.862488	1526.908447	-195.792755	-184.734848	1421.805420	-194.892853	-303.395355	1188.166992	188.947754	-268.296082	1202.587524	-596.760010	-229.294327	972.413208	315.632980	-204.386086	982.116486	-713.852814	-184.477234	999.638794	-57.592690	-174.982742	1006.210022	-327.819550	-360.017212	1029.526855	-208.395828	-389.792297	1290.917969	-213.143158	-153.914917	1241.676758	-198.104095	-286.020813	574.558472	-21.663223	-298.782410	488.770508	-71.804695	-336.616760	265.860687	-11.408719	-340.741211	79.764671	-105.607643	-383.099823	46.736046	-148.236389	-204.001953	51.290752	-124.776146	-310.366821	572.800964	-373.197266	-317.613037	496.909576	-328.817383	-328.920654	265.521790	-366.080811	-334.945251	74.212830	-298.483276	-374.563324	52.500782	-246.380676	-191.855438	46.130913	-269.177063
75	0.74000000	-274.768463	1455.143555	-3.599398	-249.836197	1471.848267	-393.459747	-316.862244	1526.911621	-195.795166	-184.715439	1421.828979	-194.926651	-303.407440	1188.277832	189.064774	-268.213928	1202.604858	-596.832214	-229.299263	972.521515	315.656982	-204.331627	982.086548	-713.813110	-184.551300	999.659119	-57.601688	-174.982239	1006.210205	-327.819916	-360.143921	1029.580444	-208.436813	-389.838989	1290.942261	-213.100845	-153.935181	1241.654785	-198.142944	-286.095856	574.567017	-21.752691	-298.775879	488.793091	-71.807220	-336.681671	265.744415	-11.419128	-340.743317	79.764854	-105.612709	-383.090851	46.699593	-148.213654	-203.987717	51.293282	-124.800186	-310.664551	572.935242	-372.975464	-317.616302	496.942749	-328.798004	-328.984924	265.483673	-366.087433	-334.968933	74.166542	-298.534943	-374.537689	52.480206	-246.442322	-191.850357	46.126717	-269.160980
76	0.75000000	-274.698547	1455.215210	-3.697517	-249.803680	1471.890625	-393.478088	-316.835999	1526.917725	-195.830856	-184.641373	1421.819946	-195.025482	-303.534637	1188.468994	189.171585	-268.208557	1202.605957	-596.836914	-229.262352	972.548920	315.711411	-204.286873	982.046143	-713.768372	-184.631744	999.704041	-57.601616	-174.982376	1006.210205	-327.819916	-360.093994	1029.550659	-208.464966	-389.842773	1290.953857	-213.093506	-153.897827	1241.723633	-198.113708	-286.109497	574.560120	-21.733784	-298.798370	488.802368	-71.797089	-336.716431	265.733093	-11.352897	-340.734894	79.773300	-105.617516	-383.126770	46.686386	-148.197174	-203.986084	51.288593	-124.809425	-310.639435	572.938354	-372.960876	-317.634003	496.881378	-328.781250	-329.047913	265.501221	-366.106781	-334.971466	74.236969	-298.530823	-374.543976	52.483986	-246.436142	-191.860291	46.143417	-269.179657
77	0.76000000	-274.645447	1455.176270	-3.746052	-249.714127	1471.807617	-393.531097	-316.765991	1526.905640	-195.866791	-184.711426	1421.789795	-195.017410	-303.406067	1188.392822	189.070007	-268.235474	1202.644043	-596.838379	-229.280296	972.643066	315.802521	-204.324005	982.100403	-713.819153	-184.656128	999.726990	-57.577827	-174.982407	1006.210205	-327.819916	-360.063934	1029.534180	-208.494553	-389.810822	1290.977417	-213.133514	-153.921829	1241.666382	-198.147278	-286.115845	574.582397	-21.711815	-298.866547	488.795837	-71.858894	-336.647278	265.877289	-11.388905	-340.741577	79.778053	-105.604912	-383.206329	46.712784	-148.267303	-203.998032	51.281242	-124.780457	-310.692505	572.936951	-372.933228	-317.619415	496.940399	-328.794250	-329.066559	265.489532	-366.137939	-334.937500	74.177505	-298.489014	-374.509003	52.457497	-246.445999	-191.876663	46.170563	-269.184082
78	0.77000000	-274.715698	1455.186157	-3.774413	-249.680511	1471.803467	-393.578979	-316.823730	1526.891357	-195.934372	-184.650497	1421.825317	-195.007950	-303.289215	1188.332397	188.944565	-268.206787	1202.653931	-596.790466	-229.319183	972.673920	315.802109	-204.329910	982.088959	-713.840302	-184.652603	999.719360	-57.562572	-174.997192	1006.212219	-327.793091	-360.220367	1029.536987	-208.487717	-389.837463	1290.963989	-213.097321	-153.929901	1241.685181	-198.115494	-286.227844	574.497131	-21.774836	-299.023071	488.797546	-71.761482	-336.670624	265.883301	-11.392959	-340.735870	79.774506	-105.616180	-383.062927	46.637207	-148.255310	-203.990875	51.289810	-124.796005	-310.673065	572.989990	-372.964355	-317.728058	496.928284	-328.776459	-329.074402	265.531128	-366.124664	-334.977570	74.216248	-298.505157	-374.529541	52.472725	-246.450577	-191.867981	46.156548	-269.162567
